<svg xmlns="http://www.w3.org/2000/svg" viewBox="0 0 420 90">
  <rect width="420" height="90" fill="#262425"/>

  <!-- Quill icon (left, scaled) -->
  <circle cx="33" cy="34" r="20" fill="none" stroke="#8c9657" stroke-width="1" opacity="0.38"/>
  <line x1="33" y1="14" x2="33" y2="17" stroke="#8c9657" stroke-width="1.3" opacity="0.45"/>
  <line x1="53" y1="34" x2="50" y2="34" stroke="#8c9657" stroke-width="1.3" opacity="0.45"/>
  <line x1="33" y1="54" x2="33" y2="51" stroke="#8c9657" stroke-width="1.3" opacity="0.45"/>
  <line x1="13" y1="34" x2="16" y2="34" stroke="#8c9657" stroke-width="1.3" opacity="0.45"/>
  <path d="M46 16 C49 19 43 31 33 41 C27 46 22 51 20 54"
        fill="none" stroke="#8c9657" stroke-width="2" stroke-linecap="round"/>
  <path d="M45 19 C40 21 36 26 34 32" fill="none" stroke="#8c9657" stroke-width="0.9" opacity="0.44"/>
  <path d="M43 23 C38 25 34 30 32 36" fill="none" stroke="#8c9657" stroke-width="0.9" opacity="0.38"/>
  <path d="M45 19 C47 24 44 29 38 35" fill="none" stroke="#8c9657" stroke-width="0.9" opacity="0.38"/>
  <circle cx="20" cy="54" r="2.5" fill="#a87a3a"/>
  <circle cx="20" cy="54" r="1.2" fill="#c8922e"/>

  <!-- Vertical divider -->
  <line x1="72" y1="18" x2="72" y2="72" stroke="#8c9657" stroke-width="1" opacity="0.28"/>

  <!-- Wordmark -->
  <text x="88" y="38" font-family="Cinzel, Palatino Linotype, Georgia, serif"
        font-size="18" font-weight="700" fill="#f0e5d9" letter-spacing="4">AETHERSCRIBE</text>

  <!-- Rule + tagline -->
  <line x1="88" y1="48" x2="396" y2="48" stroke="#8c9657" stroke-width="0.5" opacity="0.32"/>
  <text x="88" y="62" font-family="Barlow Condensed, Arial Narrow, sans-serif"
        font-size="9" font-weight="400" fill="#a87a3a" letter-spacing="5.5" opacity="0.88">INSCRIBE INFINITY</text>
</svg>
