<svg xmlns="http://www.w3.org/2000/svg" viewBox="0 0 400 90">
  <rect width="400" height="90" fill="#0f1a24"/>

  <!-- Hex icon (left, scaled) -->
  <polygon points="33,13 44,20 44,34 33,41 22,34 22,20"
           fill="#2a7abf" fill-opacity="0.14" stroke="#2a7abf" stroke-width="2.2"/>
  <circle cx="33" cy="27" r="4.5" fill="#2a7abf"/>
  <circle cx="33" cy="27" r="2.2" fill="#5aafdf"/>
  <line x1="33" y1="13" x2="33" y2="8"   stroke="#4abfab" stroke-width="1.5"/>
  <line x1="44" y1="20" x2="49" y2="17"  stroke="#4abfab" stroke-width="1.5"/>
  <line x1="44" y1="34" x2="49" y2="37"  stroke="#4abfab" stroke-width="1.5"/>
  <line x1="33" y1="41" x2="33" y2="46"  stroke="#4abfab" stroke-width="1.5"/>
  <line x1="22" y1="34" x2="17" y2="37"  stroke="#4abfab" stroke-width="1.5"/>
  <line x1="22" y1="20" x2="17" y2="17"  stroke="#4abfab" stroke-width="1.5"/>
  <circle cx="33" cy="7"  r="2.5" fill="#4abfab"/>
  <circle cx="50" cy="16" r="2.5" fill="#4abfab"/>
  <circle cx="50" cy="38" r="2.5" fill="#4abfab"/>
  <circle cx="33" cy="47" r="2.5" fill="#4abfab"/>
  <circle cx="16" cy="38" r="2.5" fill="#4abfab"/>
  <circle cx="16" cy="16" r="2.5" fill="#4abfab"/>

  <!-- Vertical divider -->
  <line x1="68" y1="18" x2="68" y2="72" stroke="#2a7abf" stroke-width="1" opacity="0.28"/>

  <!-- Wordmark -->
  <text x="84" y="34" font-family="Cinzel, Palatino Linotype, Georgia, serif"
        font-size="16" font-weight="700" fill="#e4f0f8" letter-spacing="5">NEXUS</text>
  <text x="84" y="58" font-family="Cinzel, Palatino Linotype, Georgia, serif"
        font-size="16" font-weight="700" fill="#4abfab" letter-spacing="5">SERVE</text>

  <!-- Rule + tagline -->
  <line x1="84" y1="66" x2="370" y2="66" stroke="#4abfab" stroke-width="0.5" opacity="0.28"/>
  <text x="84" y="76" font-family="Barlow Condensed, Arial Narrow, sans-serif"
        font-size="8.5" font-weight="400" fill="#2a7abf" letter-spacing="3.5" opacity="0.75">COMMAND CENTER FOR EVERY SERVICE</text>
</svg>
