<svg xmlns="http://www.w3.org/2000/svg" viewBox="0 0 24 24" fill="none" stroke="currentColor" stroke-width="1.5" stroke-linecap="round" stroke-linejoin="round">
  <!-- Chest body -->
  <rect x="3" y="12" width="18" height="8" rx="1"/>
  <!-- Chest lid (slightly open) -->
  <path d="M3 12V9.5C3 8.1 4.1 7 5.5 7h13C19.9 7 21 8.1 21 9.5V12"/>
  <!-- Lid band -->
  <path d="M3 12h18"/>
  <!-- Lock/clasp -->
  <rect x="10.5" y="14" width="3" height="3" rx=".5"/>
  <circle cx="12" cy="15.5" r=".5" fill="currentColor"/>
  <!-- Metal bands -->
  <path d="M3 16h3"/>
  <path d="M18 16h3"/>
  <!-- Sparkles above -->
  <path d="M8 4l.5 1L9.5 5.5 8.5 6 8 7l-.5-1L6.5 5.5 7.5 5z" stroke-width="1"/>
  <path d="M16.5 2.5l.3.7.7.3-.7.3-.3.7-.3-.7-.7-.3.7-.3z" stroke-width="1"/>
</svg>
